<?xml version="1.0" standalone="no"?>
<!DOCTYPE svg PUBLIC "-//W3C//DTD SVG 20010904//EN"
 "http://www.w3.org/TR/2001/REC-SVG-20010904/DTD/svg10.dtd">
<svg version="1.0" xmlns="http://www.w3.org/2000/svg"
 width="257.000000pt" height="246.000000pt" viewBox="0 0 257.000000 246.000000"
 preserveAspectRatio="xMidYMid meet">

<g transform="translate(0.000000,246.000000) scale(0.100000,-0.100000)"
fill="#4e526f" stroke="none">
<path d="M175 2391 c-47 -21 -107 -84 -132 -138 -14 -31 -17 -67 -17 -188 0
-169 7 -195 72 -267 66 -74 58 -72 517 -78 l410 -5 0 -310 c0 -232 -3 -310
-12 -310 -6 0 -49 36 -95 80 -89 86 -105 97 -170 120 -53 18 -82 19 -133 1
-54 -19 -95 -67 -95 -112 0 -51 22 -81 109 -149 71 -56 198 -206 233 -275 51
-99 102 -168 209 -275 131 -133 139 -147 139 -258 0 -89 -10 -107 -59 -107
-46 0 -70 -22 -51 -45 11 -13 78 -15 495 -15 417 0 484 2 495 15 22 26 -5 45
-64 45 -29 0 -57 5 -64 12 -19 19 -15 278 5 353 18 68 37 542 30 755 -6 177
-35 220 -151 220 -50 0 -57 3 -70 28 -8 15 -26 38 -41 52 -25 23 -34 25 -111
23 -46 -1 -84 2 -84 7 0 5 -16 22 -37 37 -32 24 -45 28 -107 28 l-71 0 -3 34
c-2 20 2 37 10 42 7 5 232 9 500 9 452 0 489 1 530 19 53 23 100 69 130 130
21 42 23 60 23 196 0 136 -2 154 -23 196 -30 61 -77 107 -130 130 -42 18 -91
19 -1095 18 -987 0 -1054 -2 -1092 -18z m2198 -82 c66 -54 77 -89 77 -244 0
-155 -11 -190 -77 -244 l-38 -31 -500 2 -500 3 -6 45 c-5 35 -1 56 17 97 29
63 30 111 5 161 -26 50 -58 78 -111 97 -91 32 -195 -25 -223 -122 -12 -40 -12
-55 0 -101 8 -29 13 -81 11 -115 l-3 -62 -410 -3 -410 -2 -38 31 c-66 54 -77
89 -77 244 0 155 11 190 77 244 l38 31 1065 0 1065 0 38 -31z m-1167 -317 c6
-4 19 -21 28 -39 13 -27 17 -82 22 -350 6 -376 7 -385 37 -381 21 3 22 9 27
138 3 74 9 144 14 155 25 57 98 73 141 30 24 -25 25 -30 25 -149 0 -130 9
-161 46 -154 17 3 19 14 22 102 3 110 20 149 67 158 23 5 84 -23 86 -39 1 -5
4 -55 8 -113 l6 -105 28 -3 c26 -3 27 -2 27 43 0 82 40 126 95 105 45 -17 47
-29 43 -443 -2 -321 -6 -397 -18 -417 -10 -19 -15 -71 -18 -205 -2 -101 -9
-185 -14 -192 -15 -18 -578 -19 -596 -1 -8 8 -12 49 -12 118 0 102 -1 109 -29
146 -16 21 -68 77 -116 124 -96 94 -136 146 -185 235 -73 134 -171 253 -282
342 -55 44 -68 59 -68 82 0 61 93 80 176 36 25 -13 83 -61 129 -106 102 -100
118 -111 152 -107 51 6 53 22 53 413 0 359 9 518 32 555 16 25 53 36 74 22z"/>
</g>
</svg>
