<?xml version="1.0" encoding="utf-8"?>
<!-- Generator: Adobe Illustrator 16.0.0, SVG Export Plug-In . SVG Version: 6.00 Build 0)  -->
<!DOCTYPE svg PUBLIC "-//W3C//DTD SVG 1.1//EN" "http://www.w3.org/Graphics/SVG/1.1/DTD/svg11.dtd">
<svg version="1.1" id="Layer_1" xmlns="http://www.w3.org/2000/svg" xmlns:xlink="http://www.w3.org/1999/xlink" x="0px" y="0px"
	 width="150px" height="26px" viewBox="0 0 150 26" enable-background="new 0 0 150 26" xml:space="preserve">
<g>
	<g>
		<path fill="#ffffff" d="M21.743,3.711c0-1.389,1.048-2.508,2.62-2.508c1.504,0,2.621,0.949,2.621,2.508v7.32l8.597-8.879
			c0.385-0.407,1.049-0.949,2.028-0.949c1.327,0,2.586,0.983,2.586,2.44c0,0.881-0.559,1.594-1.713,2.712l-6.605,6.304l8.073,8.167
			c0.838,0.813,1.467,1.56,1.467,2.576c0,1.594-1.293,2.339-2.726,2.339c-1.014,0-1.679-0.577-2.656-1.593l-9.052-9.491V23.3
			c0,1.321-1.049,2.438-2.622,2.438c-1.502,0-2.62-0.947-2.62-2.438L21.743,3.711L21.743,3.711z"/>
		<path fill="#ffffff" d="M70.982,3.848c0-1.695,1.118-2.644,2.621-2.644c0.663,0,1.747,0.509,2.202,1.119l11.077,14.334h0.07V3.848
			c0-1.695,1.118-2.644,2.621-2.644s2.62,0.949,2.62,2.644v19.25c0,1.694-1.117,2.645-2.62,2.645c-0.664,0-1.714-0.51-2.202-1.119
			L76.294,10.456h-0.069v12.642c0,1.694-1.119,2.644-2.623,2.644c-1.503,0-2.621-0.948-2.621-2.644L70.982,3.848L70.982,3.848z"/>
		<path fill="#ffffff" d="M95.132,4.356c0-1.694,0.873-2.948,2.726-2.948h8.666c1.682,0,2.483,1.152,2.483,2.338
			c0,1.152-0.841,2.338-2.483,2.338h-6.147v4.948h5.729c1.711,0,2.552,1.153,2.552,2.339c0,1.152-0.872,2.338-2.552,2.338h-5.729
			v5.152h6.463c1.681,0,2.484,1.149,2.484,2.339c0,1.151-0.843,2.338-2.484,2.338h-9.016c-1.535,0-2.689-1.017-2.689-2.541
			L95.132,4.356L95.132,4.356z"/>
		<path fill="#ffffff" d="M122.355,1c2.549,0,7.513,0.814,7.513,3.796c0,1.22-0.872,2.27-2.166,2.27
			c-1.433,0-2.411-1.186-5.347-1.186c-4.338,0-6.571,3.559-6.571,7.692c0,4.033,2.272,7.49,6.571,7.49
			c2.936,0,4.121-1.424,5.556-1.424c1.573,0,2.31,1.525,2.31,2.305c0,3.254-5.279,4-7.865,4c-7.097,0-12.021-5.457-12.021-12.47
			C110.333,6.423,115.227,1,122.355,1z"/>
	</g>
	<path fill="#ffffff" d="M66.911,6.985c-1.115-1.019-2.813-2.27-5.612-3.022c0.209-0.292,1.746-2.023,2.173-2.382
		c0,0-13.244-1.671-19.428,5.682c-1.379,1.463-3.468,6.143-1.671,10.613c0.71,1.503,2.464,3.843,6.142,4.908
		c1.086,0.271,1.19,0.313,1.19,0.313s-1.358,1.65-1.859,1.9c1.482,0.292,9.623,1.538,15.626-1.859
		c1.489-0.891,4.275-3.217,5.194-5.877C69.07,15.996,70.477,10.494,66.911,6.985z M62.196,13.154
		c-0.668,3.217-3.362,4.284-4.658,4.702c-2.485,0.814-5.014-0.439-5.577-0.752c0.104,0.313-0.167,2.066-0.502,2.715
		c-2.381-1.774-2.757-3.779-2.84-4.783c-0.084-2.194,1.378-3.781,2.172-4.45c3.176-2.652,6.865-1.354,7.742-1.068
		c0.065-0.647,0.86-2.328,0.86-2.328C62.855,8.995,62.322,12.067,62.196,13.154z"/>
	<path display="none" fill="#F48221" d="M66.911,7.017c-1.115-1.019-2.813-2.27-5.612-3.021c0.209-0.293,1.746-2.023,2.173-2.382
		c0,0-13.244-1.671-19.428,5.682c-1.379,1.463-3.468,6.143-1.671,10.613c0.71,1.503,2.464,3.843,6.142,4.907
		c1.086,0.271,1.19,0.313,1.19,0.313s-1.358,1.651-1.859,1.901c1.482,0.291,9.623,1.537,15.626-1.86
		c1.489-0.89,4.275-3.216,5.194-5.876C69.07,16.027,70.477,10.526,66.911,7.017z M62.196,13.187c-0.668,3.217-3.362,4.283-4.658,4.7
		c-2.485,0.815-5.014-0.439-5.577-0.752c0.104,0.313-0.167,2.067-0.502,2.715c-2.381-1.773-2.757-3.779-2.84-4.783
		c-0.084-2.193,1.378-3.78,2.172-4.449c3.176-2.652,6.865-1.354,7.742-1.067c0.065-0.647,0.86-2.328,0.86-2.328
		C62.855,9.026,62.322,12.1,62.196,13.187z"/>
</g>
</svg>
