<svg
	display="none"
	width="0"
	height="0"
	version="1.1"
	xmlns="http://www.w3.org/2000/svg"
	xmlns:xlink="http://www.w3.org/1999/xlink"
>
	<defs>
		<!-- icon arrowDown -->
		<symbol id="arrowDown">
			<path fill="currentColor" fill-rule="evenodd" clip-rule="evenodd" d="M1.175 0.950001L5 4.76667L8.825 0.950001L10 2.125L5 7.125L0 2.125L1.175 0.950001Z" />
		</symbol>

		<!-- icon arrowRight -->
		<symbol id="arrowRight">
			<path d="M1.71875 1.51172L4.28125 4.07422L1.71875 6.63672" stroke="currentColor" stroke-width="2" stroke-linecap="round"/>
		</symbol>

		<!-- icon arrowUp -->
		<symbol id="arrowUp">
			<path fill="currentColor" d="M240.971 130.524l194.343 194.343c9.373 9.373 9.373 24.569 0 33.941l-22.667 22.667c-9.357 9.357-24.522 9.375-33.901.04L224 227.495 69.255 381.516c-9.379 9.335-24.544 9.317-33.901-.04l-22.667-22.667c-9.373-9.373-9.373-24.569 0-33.941L207.03 130.525c9.372-9.373 24.568-9.373 33.941-.001z" />
		</symbol>

		<!-- icon youtube -->
		<symbol id="youtube">
			<path fill="currentColor" d="M549.655 124.083c-6.281-23.65-24.787-42.276-48.284-48.597C458.781 64 288 64 288 64S117.22 64 74.629 75.486c-23.497 6.322-42.003 24.947-48.284 48.597-11.412 42.867-11.412 132.305-11.412 132.305s0 89.438 11.412 132.305c6.281 23.65 24.787 41.5 48.284 47.821C117.22 448 288 448 288 448s170.78 0 213.371-11.486c23.497-6.321 42.003-24.171 48.284-47.821 11.412-42.867 11.412-132.305 11.412-132.305s0-89.438-11.412-132.305zm-317.51 213.508V175.185l142.739 81.205-142.739 81.201z"></path>
		</symbol>

		<!-- icon facebook -->
		<symbol id="facebook">
			<path fill="currentColor" d="M279.14 288l14.22-92.66h-88.91v-60.13c0-25.35 12.42-50.06 52.24-50.06h40.42V6.26S260.43 0 225.36 0c-73.22 0-121.08 44.38-121.08 124.72v70.62H22.89V288h81.39v224h100.17V288z"></path>
		</symbol>

		<!-- icon category -->
		<symbol id="category">
			<path fill="currentColor" d="M5.5 7A1.5 1.5 0 0 1 4 5.5A1.5 1.5 0 0 1 5.5 4A1.5 1.5 0 0 1 7 5.5A1.5 1.5 0 0 1 5.5 7m15.91 4.58l-9-9C12.05 2.22 11.55 2 11 2H4c-1.11 0-2 .89-2 2v7c0 .55.22 1.05.59 1.41l8.99 9c.37.36.87.59 1.42.59c.55 0 1.05-.23 1.41-.59l7-7c.37-.36.59-.86.59-1.41c0-.56-.23-1.06-.59-1.42" />
		</symbol>

		<!-- icon checked -->
		<symbol id="checked">
			<path fill="currentColor" clip-rule="evenodd" d="M21.652,3.211c-0.293-0.295-0.77-0.295-1.061,0L9.41,14.34  c-0.293,0.297-0.771,0.297-1.062,0L3.449,9.351C3.304,9.203,3.114,9.13,2.923,9.129C2.73,9.128,2.534,9.201,2.387,9.351  l-2.165,1.946C0.078,11.445,0,11.63,0,11.823c0,0.194,0.078,0.397,0.223,0.544l4.94,5.184c0.292,0.296,0.771,0.776,1.062,1.07  l2.124,2.141c0.292,0.293,0.769,0.293,1.062,0l14.366-14.34c0.293-0.294,0.293-0.777,0-1.071L21.652,3.211z" fill-rule="evenodd"/>
 		</symbol>

		<!-- icon close2 -->
		<symbol id="close2">
			<path fill="currentColor" d="M437.5,386.6L306.9,256l130.6-130.6c14.1-14.1,14.1-36.8,0-50.9c-14.1-14.1-36.8-14.1-50.9,0L256,205.1L125.4,74.5  c-14.1-14.1-36.8-14.1-50.9,0c-14.1,14.1-14.1,36.8,0,50.9L205.1,256L74.5,386.6c-14.1,14.1-14.1,36.8,0,50.9  c14.1,14.1,36.8,14.1,50.9,0L256,306.9l130.6,130.6c14.1,14.1,36.8,14.1,50.9,0C451.5,423.4,451.5,400.6,437.5,386.6z"/>
		</symbol>

	</defs>
</svg>
